<svg width="119" height="119" viewBox="0 0 119 119" fill="none" xmlns="http://www.w3.org/2000/svg">
<mask id="mask0_77_126" style="mask-type:alpha" maskUnits="userSpaceOnUse" x="-47" y="-37" width="166" height="167">
<path d="M4.9365 -30.9679C22.3196 -37.9836 41.5657 -38.9083 59.5413 -33.5915C77.5169 -28.2747 93.1634 -17.0296 103.933 -1.68695C114.703 13.6557 119.963 32.1923 118.855 50.905C117.747 69.6177 110.338 87.4043 97.8325 101.369C85.3275 115.334 68.4635 124.654 49.9861 127.813C31.5087 130.972 12.5062 127.783 -3.92771 118.765C-20.3616 109.748 -33.2591 95.4325 -40.5202 78.1505C-47.7814 60.8685 -48.9786 41.6375 -43.917 23.5884L-9.7905 33.1587C-12.6907 43.5004 -12.0047 54.5193 -7.84425 64.4215C-3.68379 74.3236 3.70614 82.5259 13.1224 87.6927C22.5386 92.8596 33.4266 94.6868 44.0137 92.877C54.6008 91.0671 64.2635 85.7267 71.4286 77.7252C78.5936 69.7237 82.8392 59.5324 83.4739 48.8105C84.1086 38.0885 81.0952 27.4675 74.9242 18.6765C68.7533 9.88553 59.7882 3.44235 49.4886 0.395974C39.189 -2.6504 28.1615 -2.12056 18.2014 1.89923L4.9365 -30.9679Z" fill="#D9D9D9"/>
</mask>
<g mask="url(#mask0_77_126)">
<circle cx="56.556" cy="60.6748" r="56.8916" fill="#AEAEAE"/>
</g>
</svg>
