<svg width="150" height="150" viewBox="0 0 150 150" fill="none" xmlns="http://www.w3.org/2000/svg">
<path d="M71.1958 3.70834C72.3932 0.023098 77.6068 0.0230843 78.8042 3.70833L92.7366 46.5878C93.2721 48.2359 94.8079 49.3517 96.5408 49.3517H141.627C145.502 49.3517 147.113 54.3102 143.978 56.5878L107.503 83.0887C106.101 84.1073 105.514 85.9128 106.05 87.5609L119.982 130.44C121.179 134.126 116.961 137.19 113.827 134.912L77.3511 108.412C75.9492 107.393 74.0508 107.393 72.6489 108.412L36.1734 134.912C33.0386 137.19 28.8206 134.126 30.0181 130.44L43.9504 87.5609C44.4859 85.9128 43.8993 84.1073 42.4973 83.0887L6.02191 56.5878C2.88705 54.3102 4.49815 49.3517 8.37304 49.3517H53.4592C55.1921 49.3517 56.7279 48.2359 57.2634 46.5878L71.1958 3.70834Z" fill="#FFA800"/>
<path d="M22.2788 27.2792C20.5197 23.8267 24.2063 20.1401 27.6588 21.8992L67.8308 42.3679C69.3749 43.1546 71.2499 42.8576 72.4752 41.6323L104.356 9.75159C107.096 7.01163 111.741 9.37857 111.135 13.2058L104.082 57.7368C103.811 59.4484 104.673 61.1398 106.217 61.9266L146.389 82.3952C149.841 84.1544 149.026 89.3038 145.199 89.91L100.668 96.963C98.9561 97.2341 97.6137 98.5765 97.3426 100.288L90.2896 144.819C89.6834 148.646 84.534 149.462 82.7748 146.009L62.3062 105.837C61.5194 104.293 59.828 103.431 58.1164 103.702L13.5854 110.756C9.75817 111.362 7.39122 106.716 10.1312 103.976L42.0119 72.0956C43.2372 70.8703 43.5342 68.9953 42.7475 67.4512L22.2788 27.2792Z" fill="#FFA800"/>
<path d="M3.70822 78.8044C0.0229759 77.6069 0.0229623 72.3933 3.70821 71.1959L46.5877 57.2635C48.2357 56.728 49.3516 55.1922 49.3516 53.4593V8.37318C49.3516 4.49828 54.3101 2.88717 56.5877 6.02203L83.0886 42.4975C84.1072 43.8994 85.9127 44.486 87.5608 43.9505L130.44 30.0182C134.125 28.8208 137.19 33.0387 134.912 36.1735L108.411 72.649C107.393 74.0509 107.393 75.9493 108.411 77.3513L134.912 113.827C137.19 116.962 134.125 121.179 130.44 119.982L87.5608 106.05C85.9127 105.514 84.1072 106.101 83.0886 107.503L56.5877 143.978C54.3101 147.113 49.3516 145.502 49.3516 141.627V96.541C49.3516 94.808 48.2357 93.2722 46.5877 92.7367L3.70822 78.8044Z" fill="#FFA800"/>
<circle cx="75" cy="75" r="46" fill="#FAFF11"/>
</svg>
